<svg xmlns="http://www.w3.org/2000/svg" viewBox="0 0 32 32" fill="none">
  <rect width="32" height="32" rx="8" fill="#0F172A"/>
  <g fill="#FDE047" transform="translate(16,16) rotate(-45) translate(-9,-12) scale(0.45)">
    <path d="M20 4 Q22 4 23 7 L23 22 Q23 26 20 27 Q17 26 17 22 L17 7 Q18 4 20 4Z"/>
    <path d="M17 11 Q10 13 6 16 Q7 17 9 16 L17 14Z"/>
    <path d="M23 11 Q30 13 34 16 Q33 17 31 16 L23 14Z"/>
    <path d="M18 21 Q14 22 12 23 Q12 24 14 23 L18 22Z"/>
    <path d="M22 21 Q26 22 28 23 Q28 24 26 23 L22 22Z"/>
  </g>
</svg>
